<svg xmlns="http://www.w3.org/2000/svg" xmlns:xlink="http://www.w3.org/1999/xlink" width="500" zoomAndPan="magnify" viewBox="0 0 375 374.999991" height="500" preserveAspectRatio="xMidYMid meet" version="1.0"><defs><g/></defs><rect x="-37.5" width="450" fill="#ffffff" y="-37.499999" height="449.999989" fill-opacity="1"/><rect x="-37.5" width="450" fill="#000000" y="-37.499999" height="449.999989" fill-opacity="1"/><g fill="#ffffff" fill-opacity="1"><g transform="translate(120.804781, 251.236832)"><g><path d="M 13.96875 0 L 13.96875 -80.84375 C 13.96875 -86.632812 13.882812 -91.460938 13.71875 -95.328125 C 13.550781 -99.203125 13.375 -102.640625 13.1875 -105.640625 L 39.34375 -105.640625 C 39.539062 -104.460938 39.800781 -100.894531 40.125 -94.9375 C 40.445312 -88.988281 40.609375 -85.039062 40.609375 -83.09375 L 41 -83.09375 C 43.675781 -90.507812 46.050781 -95.726562 48.125 -98.75 C 50.207031 -101.78125 52.679688 -104.023438 55.546875 -105.484375 C 58.410156 -106.953125 61.992188 -107.6875 66.296875 -107.6875 C 69.804688 -107.6875 72.632812 -107.195312 74.78125 -106.21875 L 74.78125 -83.28125 C 70.351562 -84.257812 66.453125 -84.75 63.078125 -84.75 C 56.234375 -84.75 50.90625 -81.976562 47.09375 -76.4375 C 43.289062 -70.90625 41.390625 -62.707031 41.390625 -51.84375 L 41.390625 0 Z M 13.96875 0 "/></g></g></g><g fill="#ffffff" fill-opacity="1"><g transform="translate(198.613175, 251.236832)"><g><path d="M 1.953125 4 L 30.359375 -144.890625 L 53.59375 -144.890625 L 25.671875 4 Z M 1.953125 4 "/></g></g></g></svg>